<?xml version="1.0" encoding="utf-8"?>
<!-- Generator: Adobe Illustrator 27.3.1, SVG Export Plug-In . SVG Version: 6.00 Build 0)  -->
<svg version="1.1" id="Layer_1" xmlns="http://www.w3.org/2000/svg" xmlns:xlink="http://www.w3.org/1999/xlink" x="0px" y="0px"
	 viewBox="0 0 437.8 437.7" style="enable-background:new 0 0 437.8 437.7;" xml:space="preserve">
<g>
	<path d="M252.8,31.7l-82.7,82.7c-9.8,9.8-17.4,21-22.7,33.2c-4.2,9.5-6.9,19.5-8.2,29.7c-0.1,0.8-0.2,1.6-0.2,2.3
		c-0.2,1.6-0.3,3.1-0.4,4.7c0,0.1,0,0.2,0,0.2c-0.1,1.6-0.2,3.2-0.2,4.8c0,0,0,0.1,0,0.1c0,0.6,0,1.2,0,1.8c0,0.6,0,1.2,0,1.8
		c0.1,3.7,0.3,7.4,0.8,11.1c0,0.1,0,0.1,0,0.2c0.2,1.5,0.4,3.1,0.7,4.6c0,0.2,0.1,0.3,0.1,0.5c0.2,1.4,0.5,2.8,0.8,4.1
		c0.1,0.3,0.1,0.6,0.2,0.9c0.1,0.5,0.2,1,0.3,1.5c0.2,1,0.5,2,0.8,3c0.1,0.5,0.3,1,0.4,1.5c0.1,0.5,0.3,1,0.5,1.5
		c0.1,0.5,0.3,1,0.5,1.5c0.3,1,0.6,2,1,3c0.2,0.5,0.3,1,0.5,1.5c0.2,0.4,0.3,0.8,0.5,1.3c0,0.1,0.1,0.2,0.1,0.2l0.4,1
		c0.1,0.1,0.1,0.3,0.2,0.4c0,0.1,0.1,0.2,0.1,0.2c0.1,0.1,0.1,0.3,0.2,0.4c0.2,0.6,0.5,1.2,0.8,1.8l0.3,0.8c0.3,0.6,0.6,1.3,0.8,1.9
		c0.3,0.7,0.7,1.4,1,2.1l0.4,0.8c0.3,0.6,0.6,1.3,0.9,1.9c0.4,0.7,0.7,1.4,1.1,2l0.4,0.8c0.4,0.6,0.7,1.3,1.1,1.9
		c0.4,0.7,0.8,1.3,1.2,2l0.5,0.8c0.4,0.6,0.8,1.2,1.1,1.8c0.4,0.7,0.9,1.3,1.3,2l0.5,0.8c0.4,0.6,0.8,1.2,1.2,1.8
		c0.5,0.6,1,1.3,1.5,1.9l0.6,0.8c0.4,0.6,0.9,1.1,1.3,1.7c0.5,0.7,1.1,1.3,1.7,2l0.6,0.7c0.4,0.5,0.9,1,1.3,1.5
		c0.8,0.9,1.7,1.8,2.5,2.7l0.2,0.2c0.4,0.4,0.7,0.8,1.1,1.2c6.3,6.3,13.1,11.6,20.4,16l18.5-18.5c4.7-4.7,7.4-11.1,7.5-17.8
		c0.1-3.2-0.4-6.2-1.5-9.1c-3-2-5.8-4.3-8.4-6.9c-0.2-0.3-0.5-0.5-0.7-0.8l-0.2-0.2c-0.4-0.4-0.9-0.9-1.2-1.3l-0.3-0.3
		c-0.2-0.2-0.4-0.5-0.6-0.7l-0.5-0.6c-0.2-0.2-0.4-0.4-0.5-0.6l-1.3-1.7c-0.2-0.2-0.3-0.4-0.4-0.6c-0.1-0.1-0.2-0.3-0.3-0.4
		l-0.9-1.3c-0.1-0.2-0.3-0.4-0.4-0.6c-0.1-0.2-0.2-0.3-0.3-0.5l-0.5-0.8l-0.4-0.6c-0.1-0.2-0.3-0.4-0.4-0.6
		c-0.1-0.2-0.2-0.3-0.3-0.5l-0.7-1.3c-0.1-0.2-0.2-0.4-0.4-0.7c-0.1-0.2-0.2-0.3-0.3-0.5l-0.6-1.3c-0.1-0.2-0.2-0.5-0.3-0.7
		c-0.1-0.2-0.2-0.4-0.2-0.6l-0.5-1.2c-0.1-0.2-0.2-0.4-0.3-0.6c0-0.1-0.1-0.2-0.1-0.4c-0.1-0.3-0.2-0.6-0.4-0.9l-0.3-1
		c-2.3-6.5-3.4-13.3-3.3-20c0.1-10,2.9-19.8,8.2-28.5c0.1-0.2,0.2-0.4,0.3-0.5c0.2-0.4,0.5-0.7,0.7-1.1c0.3-0.5,0.6-0.9,0.9-1.4
		c0.4-0.6,0.8-1.1,1.2-1.6c0.4-0.5,0.7-0.9,1.1-1.4c0.1-0.1,0.2-0.2,0.3-0.3c0.4-0.4,0.7-0.9,1.1-1.3c0.1-0.1,0.2-0.2,0.3-0.4
		c0.3-0.4,0.6-0.7,1-1.1c0.1-0.1,0.2-0.2,0.3-0.3c0.4-0.5,0.9-0.9,1.3-1.4l82.7-82.7c11-11,25.5-16.6,40-16.6
		c14.5,0,29,5.5,40.1,16.4c0.2,0.3,0.5,0.5,0.7,0.8l0.2,0.2c0.4,0.4,0.9,0.9,1.2,1.3l1.4,1.6c0.2,0.2,0.4,0.4,0.5,0.6l1.3,1.7
		c0.2,0.2,0.3,0.4,0.4,0.6c0.1,0.1,0.2,0.3,0.3,0.4l0.9,1.3c0.1,0.2,0.3,0.4,0.4,0.6c0.1,0.2,0.2,0.3,0.3,0.5l0.8,1.3
		c0.1,0.2,0.3,0.4,0.4,0.6c0.1,0.2,0.2,0.4,0.3,0.5l0.7,1.3c0.1,0.2,0.2,0.4,0.4,0.6c0.1,0.2,0.2,0.4,0.3,0.5l0.6,1.3
		c0.1,0.2,0.2,0.5,0.3,0.7c0.1,0.2,0.2,0.4,0.2,0.6l0.5,1.2c0.1,0.2,0.2,0.4,0.3,0.6c0,0.1,0.1,0.2,0.1,0.4
		c8.4,21.1,3.5,45.1-12.6,61.1L321,197c2.2,5.7,4,11.6,5.4,17.6c3.6,15.4,4.6,31.3,2.9,47l76.7-76.7C436.4,154.4,446,109,430.4,69
		c-0.1-0.3-0.2-0.6-0.3-0.8c-0.1-0.2-0.2-0.4-0.3-0.6c-0.2-0.6-0.5-1.2-0.8-1.8l-0.4-0.8c-0.3-0.6-0.6-1.3-0.9-1.9
		c-0.3-0.7-0.7-1.4-1-2.1l-0.4-0.8c-0.3-0.6-0.6-1.3-1-1.9c-0.3-0.7-0.7-1.3-1.1-2l-0.5-0.8c-0.3-0.6-0.7-1.3-1.1-1.9
		c-0.4-0.7-0.8-1.3-1.2-2l-0.5-0.8c-0.4-0.6-0.8-1.2-1.1-1.8c-0.4-0.6-0.9-1.3-1.3-1.9l-0.5-0.8c-0.4-0.6-0.8-1.2-1.2-1.8
		c-0.5-0.6-1-1.3-1.5-1.9l-0.6-0.8c-0.4-0.6-0.8-1.1-1.3-1.7c-0.5-0.7-1.1-1.3-1.6-2l-0.6-0.7c-0.4-0.5-0.9-1-1.3-1.5
		c-0.8-0.9-1.7-1.8-2.5-2.7l-0.2-0.2c-0.4-0.4-0.7-0.8-1.1-1.2C363.8-10.6,295.1-10.6,252.8,31.7z"/>
	<path d="M283.5,190.6c-4.4-7.3-9.8-14.2-16-20.4c-6.3-6.3-13.2-11.6-20.4-16l-18.5,18.5c-7.1,7.1-9.4,17.6-6,26.9
		c3,2,5.9,4.4,8.5,7c2.7,2.7,5,5.5,7,8.5c6.5,9.8,9.7,21.1,9.5,32.4c-0.2,14.2-5.7,28.4-16.6,39.3l-9.4,9.4l-73.3,73.3
		c-22.1,22.1-58.1,22.1-80.2,0c-22.1-22.1-22.1-58.1,0-80.2l48.6-48.6c-8-21-10.7-43.1-8.4-64.5l-76.6,76.6
		c-42.2,42.2-42.2,110.9,0,153.2c42.2,42.2,110.9,42.2,153.2,0l82.7-82.7c9.8-9.8,17.4-21.1,22.7-33.2c9.4-21.7,11.5-45.8,6.1-68.5
		C293.7,210.9,289.5,200.4,283.5,190.6z"/>
</g>
</svg>
