<?xml version="1.0" encoding="UTF-8"?>
<svg id="Layer_1" data-name="Layer 1" xmlns="http://www.w3.org/2000/svg" xmlns:xlink="http://www.w3.org/1999/xlink" viewBox="0 0 125 71">
  <defs>
    <style>
      .cls-1 {
        fill: #fff;
      }

      .cls-2 {
        fill: #4666a1;
      }

      .cls-3 {
        fill: #496aa8;
      }

      .cls-4 {
        filter: url(#drop-shadow-1);
      }
    </style>
    <filter id="drop-shadow-1" filterUnits="userSpaceOnUse">
      <feOffset dx="0" dy="0"/>
      <feGaussianBlur result="blur" stdDeviation="10"/>
      <feFlood flood-color="#231f20" flood-opacity=".2"/>
      <feComposite in2="blur" operator="in"/>
      <feComposite in="SourceGraphic"/>
    </filter>
  </defs>
  <g id="Rectangle_41" data-name="Rectangle 41">
    <rect class="cls-3" x="27" width="71" height="71" rx="4" ry="4"/>
  </g>
  <g class="cls-4">
    <rect id="Rectangle_40-2" data-name="Rectangle 40-2" class="cls-1" y="15" width="125" height="41"/>
  </g>
  <path id="Path_68" data-name="Path 68" class="cls-2" d="m62.5,22.09l4.36,8.83,9.75,1.42-7.05,6.88,1.67,9.71-8.72-4.58-8.72,4.58,1.67-9.71-7.05-6.87,9.75-1.42,4.36-8.83Z"/>
  <path id="Path_69" data-name="Path 69" class="cls-2" d="m93.06,22.09l4.36,8.83,9.75,1.42-7.05,6.88,1.67,9.71-8.72-4.58-8.72,4.58,1.67-9.71-7.05-6.87,9.75-1.42,4.36-8.83Z"/>
  <path id="Path_67" data-name="Path 67" class="cls-2" d="m31.94,22.09l4.36,8.83,9.75,1.42-7.05,6.88,1.67,9.71-8.72-4.58-8.72,4.58,1.67-9.71-7.05-6.87,9.75-1.42,4.36-8.83Z"/>
</svg>