<?xml version="1.0" encoding="UTF-8"?>
<svg id="Layer_1" data-name="Layer 1" xmlns="http://www.w3.org/2000/svg" xmlns:xlink="http://www.w3.org/1999/xlink" viewBox="0 0 183 136">
  <defs>
    <style>
      .cls-1 {
        fill: #fff;
      }

      .cls-2 {
        fill: #496aa8;
      }

      .cls-3 {
        filter: url(#drop-shadow-1);
      }

      .cls-4 {
        isolation: isolate;
      }
    </style>
    <filter id="drop-shadow-1" filterUnits="userSpaceOnUse">
      <feOffset dx="0" dy="0"/>
      <feGaussianBlur result="blur" stdDeviation="10"/>
      <feFlood flood-color="#231f20" flood-opacity=".2"/>
      <feComposite in2="blur" operator="in"/>
      <feComposite in="SourceGraphic"/>
    </filter>
  </defs>
  <g id="Rectangle_34" data-name="Rectangle 34">
    <rect class="cls-2" x="22.59" width="136" height="136" rx="4" ry="4"/>
  </g>
  <g class="cls-3">
    <rect id="Rectangle_35-2" data-name="Rectangle 35-2" class="cls-1" y="59" width="183" height="53"/>
  </g>
  <g id="ELITE" class="cls-4">
    <g class="cls-4">
      <path d="m49.4,73.12h15.81v5.06h-9.28v3.94h7.39v4.67h-7.39v4.16h9.79v5.06h-16.32v-22.88Z"/>
      <path d="m68.99,73.12h6.59v17.79h8.64v5.09h-15.23v-22.88Z"/>
      <path d="m87.52,73.12h6.62v22.88h-6.62v-22.88Z"/>
      <path d="m103.04,78.18h-5.92v-5.06h18.43v5.06h-5.92v17.82h-6.59v-17.82Z"/>
      <path d="m118.43,73.12h15.81v5.06h-9.28v3.94h7.39v4.67h-7.39v4.16h9.79v5.06h-16.32v-22.88Z"/>
    </g>
  </g>
  <path id="Path_61" data-name="Path 61" class="cls-1" d="m63.41,17.07l4.57,9.26,10.22,1.48-7.39,7.21,1.74,10.18-9.14-4.8-9.14,4.8,1.74-10.18-7.39-7.21,10.22-1.48,4.57-9.26Z"/>
  <path id="Path_62" data-name="Path 62" class="cls-1" d="m90.91,11.46l4.57,9.26,10.22,1.48-7.39,7.21,1.74,10.18-9.14-4.8-9.14,4.8,1.74-10.18-7.39-7.21,10.22-1.48,4.57-9.26Z"/>
  <path id="Path_63" data-name="Path 63" class="cls-1" d="m119.17,17.07l4.57,9.26,10.22,1.48-7.39,7.21,1.74,10.18-9.14-4.8-9.14,4.8,1.74-10.18-7.39-7.21,10.22-1.48,4.57-9.26Z"/>
</svg>