<?xml version="1.0" encoding="UTF-8"?>
<svg id="Layer_1" data-name="Layer 1" xmlns="http://www.w3.org/2000/svg" xmlns:xlink="http://www.w3.org/1999/xlink" viewBox="0 0 273.12 142.13">
  <defs>
    <style>
      .cls-1, .cls-2 {
        fill: #fff;
      }

      .cls-3 {
        fill: #64adc3;
      }

      .cls-2 {
        filter: url(#drop-shadow-1);
      }

      .cls-4 {
        isolation: isolate;
      }
    </style>
    <filter id="drop-shadow-1" filterUnits="userSpaceOnUse">
      <feOffset dx="0" dy="0"/>
      <feGaussianBlur result="blur" stdDeviation="10"/>
      <feFlood flood-color="#231f20" flood-opacity=".2"/>
      <feComposite in2="blur" operator="in"/>
      <feComposite in="SourceGraphic"/>
    </filter>
  </defs>
  <g id="Rectangle_32" data-name="Rectangle 32">
    <rect class="cls-3" x="68.02" width="136" height="136" rx="4" ry="4"/>
  </g>
  <rect id="Rectangle_33-2" data-name="Rectangle 33-2" class="cls-2" x="30.02" y="58" width="213" height="54"/>
  <g id="SIGNATURE" class="cls-4">
    <g class="cls-4">
      <path d="m39.31,87.56h6.24c.16,1.63.9,2.98,3.62,2.98,1.89,0,2.94-.93,2.94-2.27s-.86-1.79-3.62-2.21c-6.46-.77-8.64-2.69-8.64-7.29,0-4.13,3.39-7.14,8.86-7.14s8.61,2.3,9.02,7.14h-6.08c-.22-1.63-1.15-2.46-2.94-2.46s-2.66.8-2.66,1.95c0,1.28.7,1.86,3.55,2.24,5.79.64,8.77,2.14,8.77,7.1,0,4.19-3.33,7.62-9.22,7.62-6.4,0-9.66-2.69-9.86-7.65Z"/>
      <path d="m61.61,71.95h6.62v22.88h-6.62v-22.88Z"/>
      <path d="m71.53,83.53v-.26c0-6.98,5.12-11.68,12-11.68,5.41,0,10.21,2.46,10.66,8.42h-6.5c-.32-2.14-1.7-3.26-4.13-3.26-3.23,0-5.18,2.5-5.18,6.62v.26c0,3.71,1.38,6.59,5.34,6.59,3.2,0,4.42-1.63,4.54-3.46h-4.29v-4.58h10.75v2.82c0,5.82-3.81,10.21-11.2,10.21-7.78,0-12-4.83-12-11.68Z"/>
      <path d="m97.93,71.95h7.39l7.33,12.89v-12.89h5.73v22.88h-6.34l-8.35-14.37v14.37h-5.76v-22.88Z"/>
      <path d="m128.33,71.95h8.48l7.26,22.88h-6.94l-1.22-4.26h-7.58l-1.22,4.26h-6.11l7.33-22.88Zm1.28,14.11h5.02l-2.5-8.8-2.53,8.8Z"/>
      <path d="m148.94,77.01h-5.92v-5.06h18.43v5.06h-5.92v17.82h-6.59v-17.82Z"/>
      <path d="m164.17,85.55v-13.6h6.56v13.31c0,3.23.8,4.8,3.58,4.8s3.58-1.47,3.58-4.9v-13.21h6.62v13.5c0,6.66-3.9,9.76-10.21,9.76s-10.14-3.26-10.14-9.66Z"/>
      <path d="m188.78,71.95h8.96c5.98,0,9.31,2.43,9.31,7.26v.13c0,3.26-1.73,5.09-4.13,6.02l5.47,9.47h-6.91l-4.64-8.19h-1.54v8.19h-6.53v-22.88Zm8.64,10.43c2.21,0,3.3-.93,3.3-2.78v-.13c0-1.86-1.15-2.59-3.26-2.59h-2.14v5.5h2.11Z"/>
      <path d="m211.09,71.95h15.81v5.06h-9.28v3.94h7.39v4.67h-7.39v4.16h9.79v5.06h-16.32v-22.88Z"/>
    </g>
  </g>
  <path id="Path_59" data-name="Path 59" class="cls-1" d="m119.67,17.5l4.57,9.26,10.22,1.48-7.39,7.21,1.74,10.18-9.14-4.8-9.14,4.8,1.74-10.18-7.39-7.21,10.22-1.48,4.57-9.26Z"/>
  <path id="Path_60" data-name="Path 60" class="cls-1" d="m153.08,17.5l4.57,9.26,10.22,1.48-7.39,7.21,1.74,10.18-9.14-4.8-9.14,4.8,1.74-10.18-7.39-7.21,10.22-1.48,4.57-9.26Z"/>
</svg>