<?xml version="1.0" encoding="UTF-8"?>
<svg id="Layer_1" data-name="Layer 1" xmlns="http://www.w3.org/2000/svg" xmlns:xlink="http://www.w3.org/1999/xlink" viewBox="0 0 183 136">
  <defs>
    <style>
      .cls-1 {
        fill: #fff;
      }

      .cls-2 {
        fill: #a1d5af;
      }

      .cls-3 {
        filter: url(#drop-shadow-1);
      }

      .cls-4 {
        isolation: isolate;
      }
    </style>
    <filter id="drop-shadow-1" filterUnits="userSpaceOnUse">
      <feOffset dx="0" dy="0"/>
      <feGaussianBlur result="blur" stdDeviation="10"/>
      <feFlood flood-color="#231f20" flood-opacity=".2"/>
      <feComposite in2="blur" operator="in"/>
      <feComposite in="SourceGraphic"/>
    </filter>
  </defs>
  <g id="Rectangle_31" data-name="Rectangle 31">
    <rect class="cls-2" x="22" width="136" height="136" rx="4" ry="4"/>
  </g>
  <g class="cls-3">
    <rect id="Rectangle_30-2" data-name="Rectangle 30-2" class="cls-1" y="59" width="183" height="53"/>
  </g>
  <path id="Path_58" data-name="Path 58" class="cls-1" d="m91.33,17.9l4.57,9.26,10.22,1.48-7.39,7.21,1.74,10.18-9.14-4.8-9.14,4.8,1.74-10.18-7.39-7.21,10.22-1.48,4.57-9.26Z"/>
  <g id="CORE" class="cls-4">
    <g class="cls-4">
      <path d="m46.16,86.09v-.26c0-7.04,4.99-11.68,11.68-11.68,5.95,0,10.08,2.75,10.62,8.8h-6.75c-.26-2.34-1.54-3.62-3.84-3.62-2.94,0-4.8,2.3-4.8,6.46v.26c0,4.13,1.76,6.46,4.9,6.46,2.3,0,3.94-1.22,4.26-3.74h6.53c-.45,5.92-4.74,8.99-10.66,8.99-8,0-11.94-4.67-11.94-11.68Z"/>
      <path d="m70.42,86.09v-.26c0-6.98,5.25-11.65,12.1-11.65s12.13,4.38,12.13,11.49v.26c0,7.04-4.83,11.84-12.22,11.84s-12-4.8-12-11.68Zm17.38-.06v-.26c0-4.06-2.05-6.46-5.28-6.46s-5.25,2.34-5.25,6.5v.26c0,4.16,2.11,6.56,5.28,6.56s5.25-2.5,5.25-6.59Z"/>
      <path d="m97.84,74.51h8.96c5.98,0,9.31,2.43,9.31,7.26v.13c0,3.26-1.73,5.09-4.13,6.02l5.47,9.47h-6.91l-4.64-8.19h-1.54v8.19h-6.53v-22.88Zm8.64,10.43c2.21,0,3.3-.93,3.3-2.78v-.13c0-1.86-1.15-2.59-3.26-2.59h-2.14v5.5h2.11Z"/>
      <path d="m120.15,74.51h15.81v5.06h-9.28v3.94h7.39v4.67h-7.39v4.16h9.79v5.06h-16.32v-22.88Z"/>
    </g>
  </g>
</svg>