<svg width="410" height="76" viewBox="0 0 410 76" fill="none" xmlns="http://www.w3.org/2000/svg">
<path d="M16.5269 10.5455H20.2811C22.594 10.5455 25.0648 11.0054 25.0648 13.7576C25.0648 16.146 23.6098 17.8001 19.183 17.8001H14.9758L16.5269 10.5524V10.5455ZM0 37.1821H10.8921L13.157 26.3518H20.59C30.027 26.3518 36.1011 20.113 36.1011 12.9065C36.1011 4.97252 31.8389 1.34869 25.257 1.34869H7.47415L0 37.1821Z" fill="#0059A2"/>
<path d="M49.4914 13.634H49.5875L50.7954 24.382H43.9115L49.4914 13.634ZM25.8884 37.1821H37.1374L39.8965 32.062H51.5916L52.1887 37.1821H63.0464L57.4666 1.34182H46.6294L25.8884 37.1821Z" fill="#0059A2"/>
<path d="M67.5213 24.032L59.8344 1.34182H70.9255L74.3435 14.6978L83.0805 1.34182H96.0315L78.5644 23.9359L75.8534 37.1821H64.8103L67.5213 24.032Z" fill="#0059A2"/>
<path d="M122.394 23.5721C121.728 27.2234 118.934 38.0331 104.014 38.0331C93.6225 38.0331 88.6054 31.3002 88.6054 21.719C88.6054 10.1337 95.8256 0.477045 108.035 0.477045C116.024 0.477045 123.142 3.95675 123.348 14.6978H112.908C113.011 11.3348 111.392 9.42681 107.987 9.42681C101.852 9.42681 99.6348 16.448 99.6348 21.52C99.6348 24.4849 100.349 29.0834 105.421 29.0834C108.893 29.0834 110.849 26.7292 111.556 23.5721H122.394Z" fill="#0059A2"/>
<path d="M128.77 1.34182H139.826L137.218 13.7919H147.314L149.929 1.34182H160.986L153.498 37.1821H142.428L145.413 23.0025H135.31L132.339 37.1821H121.289L128.77 1.34182Z" fill="#0059A2"/>
<path d="M163.889 1.34182H193.511L191.651 10.5455H173.072L172.118 14.9655H189.338L187.588 23.5103H170.313L169.359 27.9784H188.336L186.421 37.1821H156.408L163.889 1.34182Z" fill="#0059A2"/>
<path d="M201.102 18.1913L192.873 1.34182H204.87L208.343 10.6553L215.474 1.34182H228.576L213.662 18.1913L222.351 37.1821H209.949L205.982 27.1616L197.691 37.1821H184.129L201.102 18.1913Z" fill="#0059A2"/>
<path d="M230.004 2.98216C230.004 1.67126 230.985 0.669218 232.248 0.669218C233.511 0.669218 234.499 1.67126 234.499 2.98216C234.499 4.29305 233.518 5.31568 232.248 5.31568C230.978 5.31568 230.004 4.30678 230.004 2.98216ZM229.503 2.98216C229.503 4.54013 230.758 5.71376 232.248 5.71376C233.737 5.71376 235 4.54013 235 2.98216C235 1.42418 233.744 0.264282 232.248 0.264282C230.752 0.264282 229.503 1.43791 229.503 2.98216ZM231.685 4.58131V3.21551H232.2L233.071 4.58131H233.6L232.687 3.17433C233.161 3.12629 233.524 2.87921 233.524 2.30269C233.524 1.69185 233.168 1.38987 232.413 1.38987H231.184V4.58131H231.685ZM231.685 1.7948H232.337C232.673 1.7948 233.037 1.85657 233.037 2.28896C233.037 2.78998 232.639 2.81057 232.2 2.81057H231.692V1.7948H231.685Z" fill="#0059A2"/>
<path d="M1.296 75H4.248L6.732 67.584H17.352L19.872 75H22.968L14.256 49.26H10.152L1.296 75ZM12.06 51.852L16.524 65.1H7.596L12.06 51.852Z" fill="black"/>
<path d="M35.7404 75.324C41.5004 75.324 45.6044 72.408 46.5044 66.468H43.5884C42.9404 70.644 40.0244 72.768 35.8124 72.768C30.2684 72.768 26.9564 68.808 26.9564 62.256V61.968C26.9564 55.488 30.5204 51.348 35.8484 51.348C40.2404 51.348 42.5084 53.364 43.1564 57.288H46.2524C45.7124 51.708 41.1764 48.864 35.8124 48.864C28.8284 48.864 23.7164 54.372 23.7164 62.004V62.292C23.7164 70.212 28.2884 75.324 35.7404 75.324Z" fill="black"/>
<path d="M60.9573 75.324C66.7173 75.324 70.8213 72.408 71.7213 66.468H68.8053C68.1573 70.644 65.2413 72.768 61.0293 72.768C55.4853 72.768 52.1733 68.808 52.1733 62.256V61.968C52.1733 55.488 55.7373 51.348 61.0653 51.348C65.4573 51.348 67.7253 53.364 68.3733 57.288H71.4693C70.9293 51.708 66.3933 48.864 61.0293 48.864C54.0453 48.864 48.9333 54.372 48.9333 62.004V62.292C48.9333 70.212 53.5053 75.324 60.9573 75.324Z" fill="black"/>
<path d="M86.8942 75.324C94.3822 75.324 99.3862 69.492 99.3862 62.22V61.932C99.3862 54.696 94.3822 48.936 86.8222 48.936C79.2622 48.936 74.1502 54.696 74.1502 62.004V62.292C74.1502 69.492 79.2982 75.324 86.8942 75.324ZM86.8942 72.732C81.5302 72.732 77.3902 68.484 77.3902 62.256V61.968C77.3902 55.848 80.8462 51.456 86.8222 51.456C92.7622 51.456 96.1462 56.136 96.1462 61.896V62.184C96.1462 68.412 92.6182 72.732 86.8942 72.732Z" fill="black"/>
<path d="M112.546 75.324C119.17 75.324 122.302 71.472 122.302 65.208V49.26H119.17V64.776C119.17 71.076 116.722 72.732 112.618 72.732C108.334 72.732 106.426 70.644 106.426 65.244V49.26H103.294V65.604C103.294 71.868 106.642 75.324 112.546 75.324Z" fill="black"/>
<path d="M127.496 75H130.484V52.932L143.48 75H147.08V49.26H144.092V70.536L131.564 49.26H127.496V75Z" fill="black"/>
<path d="M157.759 75H160.891V51.816H168.379V49.26H150.271V51.816H157.759V75Z" fill="black"/>
<path d="M167.091 75H170.043L172.527 67.584H183.147L185.667 75H188.763L180.051 49.26H175.947L167.091 75ZM177.855 51.852L182.319 65.1H173.391L177.855 51.852Z" fill="black"/>
<path d="M192.213 75H195.201V52.932L208.197 75H211.797V49.26H208.809V70.536L196.281 49.26H192.213V75Z" fill="black"/>
<path d="M222.476 75H225.608V51.816H233.096V49.26H214.988V51.816H222.476V75Z" fill="black"/>
<path d="M244.731 75H247.863V64.524H252.039C256.935 64.524 261.039 62.4 261.039 56.928V56.784C261.039 51.42 256.971 49.26 252.039 49.26H244.731V75ZM247.863 62.04V51.78H252.255C255.747 51.78 257.907 53.148 257.907 56.784V56.928C257.907 60.24 255.927 62.04 252.255 62.04H247.863Z" fill="black"/>
<path d="M264.569 75H267.701V63.804H271.661L279.329 75H282.821L274.937 63.588C278.465 62.904 281.309 60.816 281.309 56.568V56.424C281.309 51.276 277.241 49.26 272.309 49.26H264.569V75ZM267.701 61.32V51.78H272.525C276.017 51.78 278.177 52.932 278.177 56.424V56.568C278.177 59.736 276.197 61.32 272.525 61.32H267.701Z" fill="black"/>
<path d="M297.227 75.324C304.715 75.324 309.719 69.492 309.719 62.22V61.932C309.719 54.696 304.715 48.936 297.155 48.936C289.595 48.936 284.483 54.696 284.483 62.004V62.292C284.483 69.492 289.631 75.324 297.227 75.324ZM297.227 72.732C291.863 72.732 287.723 68.484 287.723 62.256V61.968C287.723 55.848 291.179 51.456 297.155 51.456C303.095 51.456 306.479 56.136 306.479 61.896V62.184C306.479 68.412 302.951 72.732 297.227 72.732Z" fill="black"/>
<path d="M325.039 75.324C331.627 75.324 336.199 71.364 336.199 63.912V62.004H325.615V64.596H333.139C333.031 69.168 330.619 72.804 325.039 72.804C318.991 72.804 315.823 68.628 315.823 62.256V61.968C315.823 55.668 319.207 51.348 325.111 51.348C328.855 51.348 331.663 52.932 332.383 57.036H335.515C334.723 51.24 330.151 48.864 325.039 48.864C317.659 48.864 312.583 54.48 312.583 62.004V62.292C312.583 69.816 317.119 75.324 325.039 75.324Z" fill="black"/>
<path d="M340.36 75H343.492V63.804H347.452L355.12 75H358.612L350.728 63.588C354.256 62.904 357.1 60.816 357.1 56.568V56.424C357.1 51.276 353.032 49.26 348.1 49.26H340.36V75ZM343.492 61.32V51.78H348.316C351.808 51.78 353.968 52.932 353.968 56.424V56.568C353.968 59.736 351.988 61.32 348.316 61.32H343.492Z" fill="black"/>
<path d="M359.942 75H362.894L365.378 67.584H375.998L378.518 75H381.614L372.902 49.26H368.798L359.942 75ZM370.706 51.852L375.17 65.1H366.242L370.706 51.852Z" fill="black"/>
<path d="M385.064 75H387.944V53.328L396.764 75H397.736L406.268 53.328V75H409.4V49.26H405.08L397.376 69.312L389.42 49.26H385.064V75Z" fill="black"/>
</svg>
