<?xml version="1.0" standalone="no"?>
<!DOCTYPE svg PUBLIC "-//W3C//DTD SVG 20010904//EN"
 "http://www.w3.org/TR/2001/REC-SVG-20010904/DTD/svg10.dtd">
<svg version="1.0" xmlns="http://www.w3.org/2000/svg"
 width="1066.000000pt" height="1144.000000pt" viewBox="0 0 1066.000000 1144.000000"
 preserveAspectRatio="xMidYMid meet">
<metadata>
Created by potrace 1.16, written by Peter Selinger 2001-2019
</metadata>
<g id="Insights1" transform="translate(0.000000,1144.000000) scale(0.100000,-0.100000)"
fill="#000000" stroke="none" >
<path d="M3805 8743 c-96 -8 -195 -37 -290 -84 -167 -82 -282 -197 -364 -364
-93 -189 -85 24 -89 -2235 -2 -1415 0 -2023 8 -2093 33 -287 199 -522 455
-643 167 -78 150 -77 870 -82 l640 -4 748 -1104 c412 -607 752 -1102 755
-1100 4 3 342 500 752 1105 l745 1100 585 1 c337 0 621 4 670 10 320 39 578
251 678 558 42 127 43 170 40 2252 -4 2247 3 2043 -82 2225 -119 252 -354 420
-636 455 -78 9 -5378 13 -5485 3z m5315 -380 c194 -67 352 -227 413 -418 l22
-70 0 -1880 0 -1880 -22 -70 c-61 -191 -219 -352 -413 -418 -64 -21 -76 -22
-729 -27 l-664 -5 -591 -868 c-325 -477 -595 -868 -599 -870 -5 -1 -276 390
-602 868 l-592 870 -659 5 c-647 5 -660 6 -724 27 -191 65 -347 222 -413 413
l-22 65 -3 1860 c-3 2065 -7 1933 63 2073 83 164 232 286 407 332 71 19 138
19 2568 17 l2495 -2 65 -22z"/>
<path d="M6365 7729 c-756 -51 -1356 -448 -1441 -954 -28 -165 3 -327 93 -482
267 -460 941 -739 1672 -692 464 29 855 171 1146 417 130 109 253 285 295 420
37 119 45 225 26 337 -76 452 -555 816 -1221 929 -81 14 -381 38 -430 35 -11
-1 -74 -6 -140 -10z"/>
<path d="M6380 5414 c-355 -13 -681 -57 -992 -134 -501 -125 -885 -314 -1146
-564 -183 -176 -274 -345 -296 -547 l-6 -55 53 -16 c295 -91 1212 -142 2542
-142 1330 0 2247 51 2542 142 l53 16 -6 55 c-22 202 -113 371 -296 547 -344
330 -929 564 -1648 658 -221 29 -590 47 -800 40z"/>
</g>
</svg>
